<mxfile host="Electron" agent="Mozilla/5.0 (Windows NT 10.0; Win64; x64) AppleWebKit/537.36 (KHTML, like Gecko) draw.io/24.7.8 Chrome/128.0.6613.36 Electron/32.0.1 Safari/537.36" version="24.7.8">
  <diagram id="R2lEEEUBdFMjLlhIrx00" name="Page-1">
    <mxGraphModel dx="1020" dy="504" grid="1" gridSize="10" guides="1" tooltips="1" connect="1" arrows="1" fold="1" page="1" pageScale="1" pageWidth="850" pageHeight="1100" math="0" shadow="0" extFonts="Permanent Marker^https://fonts.googleapis.com/css?family=Permanent+Marker">
      <root>
        <mxCell id="0" />
        <mxCell id="1" parent="0" />
        <mxCell id="qDf87e6iQ5_tekq438QE-16" style="edgeStyle=orthogonalEdgeStyle;rounded=0;orthogonalLoop=1;jettySize=auto;html=1;exitX=1;exitY=0.5;exitDx=0;exitDy=0;entryX=0;entryY=0.5;entryDx=0;entryDy=0;" parent="1" source="qDf87e6iQ5_tekq438QE-1" target="qDf87e6iQ5_tekq438QE-5" edge="1">
          <mxGeometry relative="1" as="geometry" />
        </mxCell>
        <mxCell id="qDf87e6iQ5_tekq438QE-1" value="EVENT ORGANISER" style="rounded=0;whiteSpace=wrap;html=1;" parent="1" vertex="1">
          <mxGeometry x="30" y="130" width="110" height="40" as="geometry" />
        </mxCell>
        <mxCell id="qDf87e6iQ5_tekq438QE-5" value="MANAGES" style="rhombus;whiteSpace=wrap;html=1;" parent="1" vertex="1">
          <mxGeometry x="250" y="110" width="80" height="80" as="geometry" />
        </mxCell>
        <mxCell id="qDf87e6iQ5_tekq438QE-10" value="ETMAS EVENT" style="rounded=0;whiteSpace=wrap;html=1;" parent="1" vertex="1">
          <mxGeometry x="560" y="120" width="120" height="50" as="geometry" />
        </mxCell>
        <mxCell id="qDf87e6iQ5_tekq438QE-20" value="" style="endArrow=classic;html=1;rounded=0;entryX=0.564;entryY=0.958;entryDx=0;entryDy=0;entryPerimeter=0;" parent="1" target="qDf87e6iQ5_tekq438QE-1" edge="1">
          <mxGeometry width="50" height="50" relative="1" as="geometry">
            <mxPoint x="90" y="200" as="sourcePoint" />
            <mxPoint x="120" y="170" as="targetPoint" />
          </mxGeometry>
        </mxCell>
        <mxCell id="qDf87e6iQ5_tekq438QE-22" value="" style="endArrow=classic;html=1;rounded=0;entryX=0.636;entryY=-0.042;entryDx=0;entryDy=0;entryPerimeter=0;" parent="1" target="qDf87e6iQ5_tekq438QE-1" edge="1">
          <mxGeometry width="50" height="50" relative="1" as="geometry">
            <mxPoint x="100" y="90" as="sourcePoint" />
            <mxPoint x="110" y="120" as="targetPoint" />
          </mxGeometry>
        </mxCell>
        <mxCell id="qDf87e6iQ5_tekq438QE-23" value="ADMIN_ID" style="ellipse;whiteSpace=wrap;html=1;" parent="1" vertex="1">
          <mxGeometry x="70" y="70" width="110" height="20" as="geometry" />
        </mxCell>
        <mxCell id="qDf87e6iQ5_tekq438QE-24" value="ADMIN_NAME" style="ellipse;whiteSpace=wrap;html=1;" parent="1" vertex="1">
          <mxGeometry x="50" y="200" width="100" height="20" as="geometry" />
        </mxCell>
        <mxCell id="qDf87e6iQ5_tekq438QE-25" value="" style="endArrow=classic;html=1;rounded=0;exitX=1;exitY=0.5;exitDx=0;exitDy=0;entryX=0;entryY=0.5;entryDx=0;entryDy=0;" parent="1" source="qDf87e6iQ5_tekq438QE-5" target="qDf87e6iQ5_tekq438QE-10" edge="1">
          <mxGeometry width="50" height="50" relative="1" as="geometry">
            <mxPoint x="500" y="190" as="sourcePoint" />
            <mxPoint x="550" y="140" as="targetPoint" />
          </mxGeometry>
        </mxCell>
        <mxCell id="qDf87e6iQ5_tekq438QE-26" value="" style="endArrow=classic;html=1;rounded=0;exitX=0.5;exitY=1;exitDx=0;exitDy=0;" parent="1" source="qDf87e6iQ5_tekq438QE-10" target="qDf87e6iQ5_tekq438QE-18" edge="1">
          <mxGeometry relative="1" as="geometry">
            <mxPoint x="620" y="170" as="sourcePoint" />
            <mxPoint x="620" y="340" as="targetPoint" />
          </mxGeometry>
        </mxCell>
        <mxCell id="qDf87e6iQ5_tekq438QE-18" value="GUEST" style="rounded=0;whiteSpace=wrap;html=1;" parent="1" vertex="1">
          <mxGeometry x="565" y="260" width="110" height="50" as="geometry" />
        </mxCell>
        <mxCell id="aWSck4g92zKX4s37iqqi-11" style="edgeStyle=orthogonalEdgeStyle;rounded=0;orthogonalLoop=1;jettySize=auto;html=1;exitX=0;exitY=0.5;exitDx=0;exitDy=0;entryX=1;entryY=0.5;entryDx=0;entryDy=0;" edge="1" parent="1" source="qDf87e6iQ5_tekq438QE-27" target="aWSck4g92zKX4s37iqqi-9">
          <mxGeometry relative="1" as="geometry" />
        </mxCell>
        <mxCell id="qDf87e6iQ5_tekq438QE-27" value="EVENT AND RECORDS TEAM" style="rounded=0;whiteSpace=wrap;html=1;" parent="1" vertex="1">
          <mxGeometry x="350" y="460" width="110" height="30" as="geometry" />
        </mxCell>
        <mxCell id="qDf87e6iQ5_tekq438QE-47" style="edgeStyle=orthogonalEdgeStyle;rounded=0;orthogonalLoop=1;jettySize=auto;html=1;exitX=0.5;exitY=1;exitDx=0;exitDy=0;entryX=1;entryY=0.75;entryDx=0;entryDy=0;" parent="1" source="qDf87e6iQ5_tekq438QE-28" target="qDf87e6iQ5_tekq438QE-27" edge="1">
          <mxGeometry relative="1" as="geometry" />
        </mxCell>
        <mxCell id="qDf87e6iQ5_tekq438QE-28" value="PAYMENT" style="rhombus;whiteSpace=wrap;html=1;" parent="1" vertex="1">
          <mxGeometry x="570" y="350" width="120" height="80" as="geometry" />
        </mxCell>
        <mxCell id="qDf87e6iQ5_tekq438QE-30" value="" style="endArrow=classic;html=1;rounded=0;" parent="1" edge="1">
          <mxGeometry width="50" height="50" relative="1" as="geometry">
            <mxPoint x="510" y="200" as="sourcePoint" />
            <mxPoint x="560" y="150" as="targetPoint" />
          </mxGeometry>
        </mxCell>
        <mxCell id="qDf87e6iQ5_tekq438QE-31" value="" style="endArrow=classic;html=1;rounded=0;exitX=0.591;exitY=1;exitDx=0;exitDy=0;exitPerimeter=0;" parent="1" source="qDf87e6iQ5_tekq438QE-18" target="qDf87e6iQ5_tekq438QE-28" edge="1">
          <mxGeometry width="50" height="50" relative="1" as="geometry">
            <mxPoint x="650" y="340" as="sourcePoint" />
            <mxPoint x="700" y="290" as="targetPoint" />
          </mxGeometry>
        </mxCell>
        <mxCell id="qDf87e6iQ5_tekq438QE-34" value="INDUSTRY PARTNERS&amp;nbsp;" style="ellipse;whiteSpace=wrap;html=1;" parent="1" vertex="1">
          <mxGeometry x="580" width="120" height="30" as="geometry" />
        </mxCell>
        <mxCell id="qDf87e6iQ5_tekq438QE-35" value="METHOD OF PAYMENT" style="ellipse;whiteSpace=wrap;html=1;" parent="1" vertex="1">
          <mxGeometry x="710" y="120" width="100" height="30" as="geometry" />
        </mxCell>
        <mxCell id="qDf87e6iQ5_tekq438QE-36" value="GUEST&amp;nbsp;" style="ellipse;whiteSpace=wrap;html=1;" parent="1" vertex="1">
          <mxGeometry x="460" y="30" width="140" height="30" as="geometry" />
        </mxCell>
        <mxCell id="qDf87e6iQ5_tekq438QE-37" value="SEAT NUMBER" style="ellipse;whiteSpace=wrap;html=1;" parent="1" vertex="1">
          <mxGeometry x="440" y="170" width="90" height="30" as="geometry" />
        </mxCell>
        <mxCell id="qDf87e6iQ5_tekq438QE-38" value="" style="endArrow=classic;html=1;rounded=0;entryX=0.25;entryY=0;entryDx=0;entryDy=0;exitX=0.74;exitY=0.967;exitDx=0;exitDy=0;exitPerimeter=0;" parent="1" source="qDf87e6iQ5_tekq438QE-36" target="qDf87e6iQ5_tekq438QE-10" edge="1">
          <mxGeometry width="50" height="50" relative="1" as="geometry">
            <mxPoint x="570" y="100" as="sourcePoint" />
            <mxPoint x="620" y="50" as="targetPoint" />
          </mxGeometry>
        </mxCell>
        <mxCell id="qDf87e6iQ5_tekq438QE-40" value="" style="endArrow=classic;html=1;rounded=0;entryX=1;entryY=0.75;entryDx=0;entryDy=0;exitX=0;exitY=0.5;exitDx=0;exitDy=0;" parent="1" source="qDf87e6iQ5_tekq438QE-35" target="qDf87e6iQ5_tekq438QE-10" edge="1">
          <mxGeometry width="50" height="50" relative="1" as="geometry">
            <mxPoint x="700" y="160" as="sourcePoint" />
            <mxPoint x="736" y="202" as="targetPoint" />
          </mxGeometry>
        </mxCell>
        <mxCell id="qDf87e6iQ5_tekq438QE-42" value="" style="endArrow=classic;html=1;rounded=0;entryX=0.589;entryY=0.1;entryDx=0;entryDy=0;exitX=0.5;exitY=1;exitDx=0;exitDy=0;entryPerimeter=0;" parent="1" source="qDf87e6iQ5_tekq438QE-34" target="qDf87e6iQ5_tekq438QE-10" edge="1">
          <mxGeometry width="50" height="50" relative="1" as="geometry">
            <mxPoint x="630" y="70" as="sourcePoint" />
            <mxPoint x="666" y="112" as="targetPoint" />
          </mxGeometry>
        </mxCell>
        <mxCell id="qDf87e6iQ5_tekq438QE-43" value="" style="endArrow=classic;html=1;rounded=0;entryX=1;entryY=0;entryDx=0;entryDy=0;" parent="1" target="qDf87e6iQ5_tekq438QE-10" edge="1">
          <mxGeometry width="50" height="50" relative="1" as="geometry">
            <mxPoint x="700" y="80" as="sourcePoint" />
            <mxPoint x="716" y="142" as="targetPoint" />
          </mxGeometry>
        </mxCell>
        <mxCell id="qDf87e6iQ5_tekq438QE-44" value="STUDENTS" style="ellipse;whiteSpace=wrap;html=1;" parent="1" vertex="1">
          <mxGeometry x="675" y="40" width="135" height="30" as="geometry" />
        </mxCell>
        <mxCell id="qDf87e6iQ5_tekq438QE-54" style="edgeStyle=orthogonalEdgeStyle;rounded=0;orthogonalLoop=1;jettySize=auto;html=1;exitX=0;exitY=0.5;exitDx=0;exitDy=0;entryX=1;entryY=0.5;entryDx=0;entryDy=0;" parent="1" source="qDf87e6iQ5_tekq438QE-45" target="qDf87e6iQ5_tekq438QE-18" edge="1">
          <mxGeometry relative="1" as="geometry" />
        </mxCell>
        <mxCell id="qDf87e6iQ5_tekq438QE-45" value="EMAIL" style="ellipse;whiteSpace=wrap;html=1;" parent="1" vertex="1">
          <mxGeometry x="720" y="300" width="100" height="30" as="geometry" />
        </mxCell>
        <mxCell id="qDf87e6iQ5_tekq438QE-53" style="edgeStyle=orthogonalEdgeStyle;rounded=0;orthogonalLoop=1;jettySize=auto;html=1;exitX=1;exitY=0;exitDx=0;exitDy=0;entryX=0;entryY=0.75;entryDx=0;entryDy=0;" parent="1" source="qDf87e6iQ5_tekq438QE-48" target="qDf87e6iQ5_tekq438QE-18" edge="1">
          <mxGeometry relative="1" as="geometry" />
        </mxCell>
        <mxCell id="qDf87e6iQ5_tekq438QE-48" value="AFFLIATION&amp;nbsp;" style="ellipse;whiteSpace=wrap;html=1;" parent="1" vertex="1">
          <mxGeometry x="430" y="310" width="100" height="30" as="geometry" />
        </mxCell>
        <mxCell id="qDf87e6iQ5_tekq438QE-49" value="GUEST ID" style="ellipse;whiteSpace=wrap;html=1;" parent="1" vertex="1">
          <mxGeometry x="680" y="205" width="120" height="35" as="geometry" />
        </mxCell>
        <mxCell id="qDf87e6iQ5_tekq438QE-55" style="edgeStyle=orthogonalEdgeStyle;rounded=0;orthogonalLoop=1;jettySize=auto;html=1;exitX=0;exitY=0.5;exitDx=0;exitDy=0;entryX=0.839;entryY=0.047;entryDx=0;entryDy=0;entryPerimeter=0;" parent="1" source="qDf87e6iQ5_tekq438QE-49" target="qDf87e6iQ5_tekq438QE-18" edge="1">
          <mxGeometry relative="1" as="geometry" />
        </mxCell>
        <mxCell id="aWSck4g92zKX4s37iqqi-14" value="" style="edgeStyle=orthogonalEdgeStyle;rounded=0;orthogonalLoop=1;jettySize=auto;html=1;" edge="1" parent="1" source="qDf87e6iQ5_tekq438QE-60" target="qDf87e6iQ5_tekq438QE-5">
          <mxGeometry relative="1" as="geometry">
            <mxPoint x="280" y="260" as="targetPoint" />
          </mxGeometry>
        </mxCell>
        <mxCell id="aWSck4g92zKX4s37iqqi-28" style="edgeStyle=orthogonalEdgeStyle;rounded=0;orthogonalLoop=1;jettySize=auto;html=1;exitX=0;exitY=0;exitDx=0;exitDy=0;entryX=1;entryY=0.5;entryDx=0;entryDy=0;" edge="1" parent="1" source="qDf87e6iQ5_tekq438QE-60" target="aWSck4g92zKX4s37iqqi-25">
          <mxGeometry relative="1" as="geometry" />
        </mxCell>
        <mxCell id="qDf87e6iQ5_tekq438QE-60" value="SEAT ALLOCATION" style="rhombus;whiteSpace=wrap;html=1;" parent="1" vertex="1">
          <mxGeometry x="200" y="310" width="160" height="85" as="geometry" />
        </mxCell>
        <mxCell id="qDf87e6iQ5_tekq438QE-62" value="GUEST NAME" style="ellipse;whiteSpace=wrap;html=1;" parent="1" vertex="1">
          <mxGeometry x="420" y="520" width="120" height="30" as="geometry" />
        </mxCell>
        <mxCell id="qDf87e6iQ5_tekq438QE-64" value="" style="endArrow=classic;html=1;rounded=0;exitX=0.4;exitY=0.06;exitDx=0;exitDy=0;exitPerimeter=0;" parent="1" source="qDf87e6iQ5_tekq438QE-62" edge="1">
          <mxGeometry width="50" height="50" relative="1" as="geometry">
            <mxPoint x="440" y="440" as="sourcePoint" />
            <mxPoint x="450" y="490" as="targetPoint" />
          </mxGeometry>
        </mxCell>
        <mxCell id="qDf87e6iQ5_tekq438QE-65" value="TICKET ID" style="ellipse;whiteSpace=wrap;html=1;" parent="1" vertex="1">
          <mxGeometry x="320" y="410" width="80" height="20" as="geometry" />
        </mxCell>
        <mxCell id="qDf87e6iQ5_tekq438QE-66" value="" style="endArrow=classic;html=1;rounded=0;entryX=0.158;entryY=0.011;entryDx=0;entryDy=0;entryPerimeter=0;exitX=0.5;exitY=1;exitDx=0;exitDy=0;" parent="1" target="qDf87e6iQ5_tekq438QE-27" edge="1">
          <mxGeometry width="50" height="50" relative="1" as="geometry">
            <mxPoint x="360" y="430" as="sourcePoint" />
            <mxPoint x="356" y="470" as="targetPoint" />
          </mxGeometry>
        </mxCell>
        <mxCell id="qDf87e6iQ5_tekq438QE-68" value="METHOD OF PAYMENT" style="ellipse;whiteSpace=wrap;html=1;" parent="1" vertex="1">
          <mxGeometry x="270" y="540" width="120" height="30" as="geometry" />
        </mxCell>
        <mxCell id="qDf87e6iQ5_tekq438QE-70" value="" style="endArrow=classic;html=1;rounded=0;exitX=0.7;exitY=0;exitDx=0;exitDy=0;exitPerimeter=0;entryX=0.17;entryY=1.011;entryDx=0;entryDy=0;entryPerimeter=0;" parent="1" source="qDf87e6iQ5_tekq438QE-68" target="qDf87e6iQ5_tekq438QE-27" edge="1">
          <mxGeometry width="50" height="50" relative="1" as="geometry">
            <mxPoint x="350" y="500" as="sourcePoint" />
            <mxPoint x="360" y="520" as="targetPoint" />
          </mxGeometry>
        </mxCell>
        <mxCell id="aWSck4g92zKX4s37iqqi-1" value="PHONE NUMBER" style="ellipse;whiteSpace=wrap;html=1;" vertex="1" parent="1">
          <mxGeometry x="435" y="240" width="105" height="40" as="geometry" />
        </mxCell>
        <mxCell id="aWSck4g92zKX4s37iqqi-2" value="" style="endArrow=classic;html=1;rounded=0;exitX=1;exitY=0.5;exitDx=0;exitDy=0;entryX=0;entryY=0;entryDx=0;entryDy=0;" edge="1" parent="1" source="aWSck4g92zKX4s37iqqi-1" target="qDf87e6iQ5_tekq438QE-18">
          <mxGeometry relative="1" as="geometry">
            <mxPoint x="630" y="180" as="sourcePoint" />
            <mxPoint x="630" y="270" as="targetPoint" />
            <Array as="points">
              <mxPoint x="540" y="260" />
            </Array>
          </mxGeometry>
        </mxCell>
        <mxCell id="aWSck4g92zKX4s37iqqi-12" value="" style="edgeStyle=orthogonalEdgeStyle;rounded=0;orthogonalLoop=1;jettySize=auto;html=1;" edge="1" parent="1" source="aWSck4g92zKX4s37iqqi-9" target="qDf87e6iQ5_tekq438QE-60">
          <mxGeometry relative="1" as="geometry" />
        </mxCell>
        <mxCell id="aWSck4g92zKX4s37iqqi-9" value="USHER" style="rounded=0;whiteSpace=wrap;html=1;" vertex="1" parent="1">
          <mxGeometry x="120" y="450" width="100" height="40" as="geometry" />
        </mxCell>
        <mxCell id="aWSck4g92zKX4s37iqqi-23" style="edgeStyle=orthogonalEdgeStyle;rounded=0;orthogonalLoop=1;jettySize=auto;html=1;exitX=0.5;exitY=1;exitDx=0;exitDy=0;entryX=0;entryY=0;entryDx=0;entryDy=0;" edge="1" parent="1" source="aWSck4g92zKX4s37iqqi-15" target="aWSck4g92zKX4s37iqqi-9">
          <mxGeometry relative="1" as="geometry" />
        </mxCell>
        <mxCell id="aWSck4g92zKX4s37iqqi-15" value="USHER NAME" style="ellipse;whiteSpace=wrap;html=1;" vertex="1" parent="1">
          <mxGeometry x="20" y="400" width="120" height="20" as="geometry" />
        </mxCell>
        <mxCell id="aWSck4g92zKX4s37iqqi-18" value="USHER CONTACT" style="ellipse;whiteSpace=wrap;html=1;" vertex="1" parent="1">
          <mxGeometry x="40" y="520" width="140" height="30" as="geometry" />
        </mxCell>
        <mxCell id="aWSck4g92zKX4s37iqqi-19" style="edgeStyle=orthogonalEdgeStyle;rounded=0;orthogonalLoop=1;jettySize=auto;html=1;exitX=0.5;exitY=1;exitDx=0;exitDy=0;" edge="1" parent="1" source="aWSck4g92zKX4s37iqqi-15" target="aWSck4g92zKX4s37iqqi-15">
          <mxGeometry relative="1" as="geometry" />
        </mxCell>
        <mxCell id="aWSck4g92zKX4s37iqqi-24" style="edgeStyle=orthogonalEdgeStyle;rounded=0;orthogonalLoop=1;jettySize=auto;html=1;exitX=1;exitY=0;exitDx=0;exitDy=0;entryX=0.353;entryY=1.008;entryDx=0;entryDy=0;entryPerimeter=0;" edge="1" parent="1" source="aWSck4g92zKX4s37iqqi-18" target="aWSck4g92zKX4s37iqqi-9">
          <mxGeometry relative="1" as="geometry" />
        </mxCell>
        <mxCell id="aWSck4g92zKX4s37iqqi-25" value="EXIBITION&amp;nbsp;" style="rounded=0;whiteSpace=wrap;html=1;" vertex="1" parent="1">
          <mxGeometry x="10" y="300" width="140" height="40" as="geometry" />
        </mxCell>
        <mxCell id="aWSck4g92zKX4s37iqqi-27" value="SEATNUMBER" style="ellipse;whiteSpace=wrap;html=1;" vertex="1" parent="1">
          <mxGeometry x="50" y="260" width="100" height="20" as="geometry" />
        </mxCell>
        <mxCell id="aWSck4g92zKX4s37iqqi-29" style="edgeStyle=orthogonalEdgeStyle;rounded=0;orthogonalLoop=1;jettySize=auto;html=1;exitX=0.5;exitY=1;exitDx=0;exitDy=0;entryX=0.648;entryY=-0.075;entryDx=0;entryDy=0;entryPerimeter=0;" edge="1" parent="1" source="aWSck4g92zKX4s37iqqi-27" target="aWSck4g92zKX4s37iqqi-25">
          <mxGeometry relative="1" as="geometry" />
        </mxCell>
      </root>
    </mxGraphModel>
  </diagram>
</mxfile>
